<svg xmlns="http://www.w3.org/2000/svg" xmlns:xlink="http://www.w3.org/1999/xlink" width="436.89" height="597.311" viewBox="0 0 436.89 597.311">
  <defs>
    <filter id="Path_4" x="0" y="0" width="436.89" height="597.311" filterUnits="userSpaceOnUse">
      <feOffset dx="20" input="SourceAlpha"/>
      <feGaussianBlur stdDeviation="7.5" result="blur"/>
      <feFlood flood-opacity="0.161"/>
      <feComposite operator="in" in2="blur"/>
      <feComposite in="SourceGraphic"/>
    </filter>
  </defs>
  <g id="Group_35" data-name="Group 35" transform="translate(-1255.462 -290.03)">
    <g transform="matrix(1, 0, 0, 1, 1255.46, 290.03)" filter="url(#Path_4)">
      <path id="Path_4-2" data-name="Path 4" d="M5070.151,337.033c-.261-144.3,390.89,50.469,390.89,50.469V803.475c0,98.539-390.89-64.635-390.89-64.635S5070.412,481.333,5070.151,337.033Z" transform="translate(-5067.15 -260.79)" fill="#0b648b" stroke="#707070" stroke-width="1"/>
    </g>
    <g id="Group_34" data-name="Group 34" transform="translate(-14 -76)">
      <g id="Group_19" data-name="Group 19" transform="translate(96 52)">
        <g id="Ellipse_5" data-name="Ellipse 5" transform="translate(1220 389)" fill="#fff" stroke="#707070" stroke-width="1">
          <ellipse cx="13.5" cy="26.5" rx="13.5" ry="26.5" stroke="none"/>
          <ellipse cx="13.5" cy="26.5" rx="13" ry="26" fill="none"/>
        </g>
        <path id="Path_5" data-name="Path 5" d="M4665.284,267.214v8l100.041,31s.623-9.627,0-9.627S4665.284,267.214,4665.284,267.214Z" transform="translate(-3409.019 132)" fill="#e8e1e1"/>
        <path id="Path_6" data-name="Path 6" d="M4665.284,267.214v6.755l246.22,79.017s.234-6.87,0-6.568S4665.284,267.214,4665.284,267.214Z" transform="translate(-3409.019 152)" fill="#e8e1e1"/>
        <path id="Path_7" data-name="Path 7" d="M4665.285,267.214v6.636l246.22,77.618s.234-6.748,0-6.451S4665.285,267.214,4665.285,267.214Z" transform="translate(-3409.019 171)" fill="#e8e1e1"/>
      </g>
      <g id="Group_19-2" data-name="Group 19" transform="translate(96 154)">
        <g id="Ellipse_5-2" data-name="Ellipse 5" transform="translate(1220 389)" fill="#fff" stroke="#707070" stroke-width="1">
          <ellipse cx="13.5" cy="26.5" rx="13.5" ry="26.5" stroke="none"/>
          <ellipse cx="13.5" cy="26.5" rx="13" ry="26" fill="none"/>
        </g>
        <path id="Path_5-2" data-name="Path 5" d="M4665.284,267.214v8l100.041,31s.623-9.627,0-9.627S4665.284,267.214,4665.284,267.214Z" transform="translate(-3409.019 132)" fill="#e8e1e1"/>
        <path id="Path_6-2" data-name="Path 6" d="M4665.284,267.214v6.755l246.22,79.017s.234-6.87,0-6.568S4665.284,267.214,4665.284,267.214Z" transform="translate(-3409.019 152)" fill="#e8e1e1"/>
        <path id="Path_7-2" data-name="Path 7" d="M4665.285,267.214v6.636l246.22,77.618s.234-6.748,0-6.451S4665.285,267.214,4665.285,267.214Z" transform="translate(-3409.019 171)" fill="#e8e1e1"/>
      </g>
      <g id="Group_19-3" data-name="Group 19" transform="translate(96 256)">
        <g id="Ellipse_5-3" data-name="Ellipse 5" transform="translate(1220 389)" fill="#fff" stroke="#707070" stroke-width="1">
          <ellipse cx="13.5" cy="26.5" rx="13.5" ry="26.5" stroke="none"/>
          <ellipse cx="13.5" cy="26.5" rx="13" ry="26" fill="none"/>
        </g>
        <path id="Path_5-3" data-name="Path 5" d="M4665.284,267.214v8l100.041,31s.623-9.627,0-9.627S4665.284,267.214,4665.284,267.214Z" transform="translate(-3409.019 132)" fill="#e8e1e1"/>
        <path id="Path_6-3" data-name="Path 6" d="M4665.284,267.214v6.755l246.22,79.017s.234-6.87,0-6.568S4665.284,267.214,4665.284,267.214Z" transform="translate(-3409.019 152)" fill="#e8e1e1"/>
        <path id="Path_7-3" data-name="Path 7" d="M4665.285,267.214v6.636l246.22,77.618s.234-6.748,0-6.451S4665.285,267.214,4665.285,267.214Z" transform="translate(-3409.019 171)" fill="#e8e1e1"/>
      </g>
      <g id="Group_19-4" data-name="Group 19" transform="translate(96 358)">
        <g id="Ellipse_5-4" data-name="Ellipse 5" transform="translate(1220 389)" fill="#fff" stroke="#707070" stroke-width="1">
          <ellipse cx="13.5" cy="26.5" rx="13.5" ry="26.5" stroke="none"/>
          <ellipse cx="13.5" cy="26.5" rx="13" ry="26" fill="none"/>
        </g>
        <path id="Path_5-4" data-name="Path 5" d="M4665.284,267.214v8l100.041,31s.623-9.627,0-9.627S4665.284,267.214,4665.284,267.214Z" transform="translate(-3409.019 132)" fill="#e8e1e1"/>
        <path id="Path_6-4" data-name="Path 6" d="M4665.284,267.214v6.755l246.22,79.017s.234-6.87,0-6.568S4665.284,267.214,4665.284,267.214Z" transform="translate(-3409.019 152)" fill="#e8e1e1"/>
        <path id="Path_7-4" data-name="Path 7" d="M4665.285,267.214v6.636l246.22,77.618s.234-6.748,0-6.451S4665.285,267.214,4665.285,267.214Z" transform="translate(-3409.019 171)" fill="#e8e1e1"/>
      </g>
    </g>
  </g>
</svg>
