<svg xmlns="http://www.w3.org/2000/svg" width="330" height="82.785" viewBox="0 0 330 82.785">
  <g id="Group_33" data-name="Group 33" transform="translate(-95 -43)">
    <g id="Logo">
      <rect id="Rectangle_1" data-name="Rectangle 1" width="85.043" height="82.785" rx="11" transform="translate(95 43)" fill="#0b648b"/>
      <g id="Group_3" data-name="Group 3" transform="translate(105.071 58.295)">
        <path id="Path_1" data-name="Path 1" d="M5.114,0A5.114,5.114,0,1,1,0,5.114,5.114,5.114,0,0,1,5.114,0Z" fill="#e8e1e1"/>
        <line id="Line_2" data-name="Line 2" x2="28.108" transform="translate(12.622)" fill="none" stroke="#fff" stroke-width="2"/>
        <line id="Line_3" data-name="Line 3" x2="51.929" transform="translate(12.882 4.516)" fill="none" stroke="#fff" stroke-width="2"/>
        <line id="Line_4" data-name="Line 4" x2="51.929" transform="translate(12.882 9.031)" fill="none" stroke="#fff" stroke-width="2"/>
      </g>
      <g id="Group_3-2" data-name="Group 3" transform="translate(105.071 78.883)">
        <path id="Path_1-2" data-name="Path 1" d="M5.114,0A5.114,5.114,0,1,1,0,5.114,5.114,5.114,0,0,1,5.114,0Z" fill="#e8e1e1"/>
        <line id="Line_2-2" data-name="Line 2" x2="28.108" transform="translate(12.622)" fill="none" stroke="#fff" stroke-width="2"/>
        <line id="Line_3-2" data-name="Line 3" x2="51.929" transform="translate(12.882 4.516)" fill="none" stroke="#fff" stroke-width="2"/>
        <line id="Line_4-2" data-name="Line 4" x2="51.929" transform="translate(12.882 9.031)" fill="none" stroke="#fff" stroke-width="2"/>
      </g>
      <g id="Group_3-3" data-name="Group 3" transform="translate(105.071 99.471)">
        <path id="Path_1-3" data-name="Path 1" d="M5.114,0A5.114,5.114,0,1,1,0,5.114,5.114,5.114,0,0,1,5.114,0Z" fill="#e8e1e1"/>
        <line id="Line_2-3" data-name="Line 2" x2="28.108" transform="translate(12.622)" fill="none" stroke="#fff" stroke-width="2"/>
        <line id="Line_3-3" data-name="Line 3" x2="51.929" transform="translate(12.882 4.516)" fill="none" stroke="#fff" stroke-width="2"/>
        <line id="Line_4-3" data-name="Line 4" x2="51.929" transform="translate(12.882 9.031)" fill="none" stroke="#fff" stroke-width="2"/>
      </g>
    </g>
    <text id="theList" transform="translate(196 100)" fill="#040000" font-size="54" font-family="OCRAExtended, OCR A"><tspan x="0" y="0">theList</tspan></text>
  </g>
</svg>
